{"title":"Star Trek II:The Wrath of Khan(1982)MPEG-4[DaScubaDude]","uid":15357582,"size":1234618047,"categoryP":"video","categoryS":"movies","magnet":"?xt=urn:btih:a435544fee3512fde53f8db25b63156edecffd55&amp;dn=Star+Trek+II%3AThe+Wrath+of+Khan%281982%29MPEG-4%5BDaScubaDude%5D&amp;tr=udp%3A%2F%2Ftracker.leechers-paradise.org%3A6969&amp;tr=udp%3A%2F%2Fzer0day.ch%3A1337&amp;tr=udp%3A%2F%2Fopen.demonii.com%3A1337&amp;tr=udp%3A%2F%2Ftracker.coppersurfer.tk%3A6969&amp;tr=udp%3A%2F%2Fexodus.desync.com%3A6969","seeders":0,"leechers":1,"uploader":"dascuba","files":1,"time":1468991733,"description":"Star Trek II: The Wrath of Khan (1982)\r\nStar Trek: The Wrath of Khan (original title)\r\nPG | 1h 53min | Action, Adventure, Sci-Fi | 4 June 1982 (USA)\r\nWith the assistance of the Enterprise crew, Admiral Kirk must stop an old nemesis, Khan Noonien Singh, from using the life-generating Genesis Device as the ultimate weapon.\r\nDirector: Nicholas Meyer\r\nWriters: Gene Roddenberry (television series Star Trek), Harve Bennett (story) |\r\nStars: William Shatner, Leonard Nimoy, DeForest Kelley \r\n\r\nGeneral\r\nComplete name                            : TheWrathofKhanSTAR_TREK_II_Title1.mp4\r\nFormat                                   : MPEG-4\r\nFormat profile                           : Base Media\r\nCodec ID                                 : isom (isom/iso2/avc1/mp41)\r\nFile size                                : 1.15 GiB\r\nDuration                                 : 1h 52mn\r\nOverall bit rate                         : 1 457 Kbps\r\nMovie name                               : STAR_TREK_II\r\nGenre                                    : Science_Fiction\r\nWriting application                      : Lavf54.6.100\r\n\r\nVideo\r\nID                                       : 1\r\nFormat                                   : AVC\r\nFormat/Info                              : Advanced Video Codec\r\nFormat profile                           :   \r\nFormat settings, CABAC                   : No\r\nFormat settings, ReFrames                : 6 frames\r\nCodec ID                                 : avc1\r\nCodec ID/Info                            : Advanced Video Coding\r\nDuration                                 : 1h 52mn\r\nBit rate                                 : 1 200 Kbps\r\nWidth                                    : 720 pixels\r\nHeight                                   : 404 pixels\r\nDisplay aspect ratio                     : 16:9\r\nFrame rate mode                          : Constant\r\nFrame rate                               : 29.970 (30000/1001) fps\r\nColor space                              : YUV\r\nChroma subsampling                       : 4:2:0\r\nBit depth                                : 8 bits\r\nScan type                                : Progressive\r\nBits/(Pixel*Frame)                       : 0.138\r\nStream size                              : 969 MiB (82%)\r\n\r\nAudio\r\nID                                       : 2\r\nFormat                                   : AAC\r\nFormat/Info                              : Advanced Audio Codec\r\nFormat profile                           : LC\r\nCodec ID                                 : 40\r\nDuration                                 : 1h 52mn\r\nBit rate mode                            : Constant\r\nBit rate                                 : 251 Kbps\r\nChannel(s)                               : 2 channels\r\nChannel(s)_Original                      : 6 channels\r\nChannel positions                        : Front: L C R, Side: L R, LFE\r\nSampling rate                            : 44.1 KHz\r\nFrame rate                               : 43.066 fps (1024 spf)\r\nCompression mode                         : Lossy\r\nStream size                              : 203 MiB (17%)\r\nDefault                                  : Yes\r\nAlternate group                          : 1","torrent":{"xt":"urn:btih:a435544fee3512fde53f8db25b63156edecffd55","amp;dn":"Star+Trek+II%3AThe+Wrath+of+Khan%281982%29MPEG-4%5BDaScubaDude%5D","amp;tr":["udp%3A%2F%2Ftracker.leechers-paradise.org%3A6969","udp%3A%2F%2Fzer0day.ch%3A1337","udp%3A%2F%2Fopen.demonii.com%3A1337","udp%3A%2F%2Ftracker.coppersurfer.tk%3A6969","udp%3A%2F%2Fexodus.desync.com%3A6969"],"infoHash":"a435544fee3512fde53f8db25b63156edecffd55","infoHashBuffer":{"type":"Buffer","data":[164,53,84,79,238,53,18,253,229,63,141,178,91,99,21,110,222,207,253,85]},"announce":[],"urlList":[]}}